# xmcd CD database generated by RipIT
#
# Track frame offsets:
# 150
# 23255
# 45590
# 80010
# 107307
# 135660
# 158097
# 191965
# 220425
# 242392
#
# Disc length: 3394 seconds
#
# Revision: 2
# Processed by: cddbd v1.5.1PL2 Copyright (c) Steve Scherf et al.
# Submitted via: RipIT 3.3.3 www.suwald.com/ripit/ripit.html at Fr Jul 14 21:08:44 CEST 2006
#
DISCID=780d400a
DTITLE=Pork Pie  - Operanoia
DYEAR=1996
DGENRE=Jazz
TTITLE0=Arthur Rainbow 
TTITLE1=Hippie
TTITLE2=Merci Afrique
TTITLE3=Candy Lip
TTITLE4=Get Down
TTITLE5=Ballade
TTITLE6=Lazy Day
TTITLE7=Operanoia
TTITLE8=Zulu Stomp
TTITLE9=The Quiet American
EXTD=YEAR: 1996\n
EXTD=Charlie Mariano\n
EXTD=Jasper vant Hof\n
EXTD=Philip Ctherine\n
EXTD=feat. Don Alias\n
EXTT0=
EXTT1=
EXTT2=
EXTT3=
EXTT4=
EXTT5=
EXTT6=
EXTT7=
EXTT8=
EXTT9=
PLAYORDER=
